<svg width="60" height="60" viewBox="0 0 60 60" fill="none" xmlns="http://www.w3.org/2000/svg">
<path d="M51.5375 42.5H8.4625M6.925 32.5L5.3425 24.2825C5.30086 24.0654 5.30774 23.8417 5.36263 23.6276C5.41752 23.4134 5.51907 23.214 5.66001 23.0437C5.80096 22.8734 5.97781 22.7363 6.17791 22.6423C6.37801 22.5483 6.59642 22.4997 6.8175 22.5H53.185C53.4059 22.5001 53.624 22.549 53.8238 22.6431C54.0236 22.7373 54.2001 22.8744 54.3408 23.0447C54.4814 23.215 54.5828 23.4142 54.6375 23.6282C54.6923 23.8422 54.6991 24.0656 54.6575 24.2825L53.075 32.5H6.925ZM6.9225 32.5H53.0775H6.9225ZM6.9225 32.5L8.4625 42.5L6.9225 32.5ZM53.0775 32.5L51.5375 42.5L53.0775 32.5ZM51.5375 42.5L50.195 51.2275C50.1406 51.5817 49.9613 51.9048 49.6893 52.1382C49.4174 52.3716 49.0709 52.5 48.7125 52.5H11.2875C10.9291 52.5 10.5826 52.3716 10.3107 52.1382C10.0387 51.9048 9.85935 51.5817 9.805 51.2275L8.4625 42.5H51.5375Z" stroke="black" stroke-width="1.5"/>
<path d="M20 22.5V12.5C20 11.1739 20.5268 9.90215 21.4645 8.96447C22.4021 8.02678 23.6739 7.5 25 7.5H35C36.3261 7.5 37.5979 8.02678 38.5355 8.96447C39.4732 9.90215 40 11.1739 40 12.5V22.5" stroke="black" stroke-width="1.5"/>
</svg>
