<svg width="60" height="60" viewBox="0 0 60 60" fill="none" xmlns="http://www.w3.org/2000/svg">
<path d="M30 55C43.8075 55 55 43.8075 55 30C55 16.1925 43.8075 5 30 5C16.1925 5 5 16.1925 5 30C5 43.8075 16.1925 55 30 55Z" stroke="black" stroke-width="1.5" stroke-linecap="round" stroke-linejoin="round"/>
<path d="M30 40.9775V46.25M37.5 21.25C35.7875 19.5375 32.7725 18.3475 30 18.2725L37.5 21.25ZM22.5 37.5C24.11 39.65 27.1075 40.875 30 40.9775L22.5 37.5ZM30 18.2725C26.7 18.1825 23.75 19.675 23.75 23.75C23.75 31.25 37.5 27.5 37.5 35C37.5 39.2775 33.84 41.115 30 40.9775V18.2725ZM30 18.2725V13.75V18.2725Z" stroke="black" stroke-width="1.5" stroke-linecap="round" stroke-linejoin="round"/>
</svg>
