<svg width="147" height="44" viewBox="0 0 147 44" fill="none" xmlns="http://www.w3.org/2000/svg">
<path d="M24.0505 21.9453C29.6207 11.7293 29.8774 7.60135 30.5 5C37.0076 9.3285 37.7322 17.8721 32.906 28.7726C26.3018 42.6206 19.2158 41.4967 17.6969 39.8957C14.4753 36.5 18.3927 33.7237 24.0505 21.9453Z" fill="#5F9968"/>
<path d="M55.36 29.2C53.9467 29.2 52.6667 28.8933 51.52 28.28C50.3867 27.6533 49.4933 26.7933 48.84 25.7C48.2 24.6067 47.88 23.3733 47.88 22C47.88 20.6267 48.2067 19.3933 48.86 18.3C49.5133 17.2067 50.4067 16.3533 51.54 15.74C52.6867 15.1133 53.9667 14.8 55.38 14.8C56.5267 14.8 57.5733 15 58.52 15.4C59.4667 15.8 60.2667 16.38 60.92 17.14L59.24 18.72C58.2267 17.6267 56.98 17.08 55.5 17.08C54.54 17.08 53.68 17.2933 52.92 17.72C52.16 18.1333 51.5667 18.7133 51.14 19.46C50.7133 20.2067 50.5 21.0533 50.5 22C50.5 22.9467 50.7133 23.7933 51.14 24.54C51.5667 25.2867 52.16 25.8733 52.92 26.3C53.68 26.7133 54.54 26.92 55.5 26.92C56.98 26.92 58.2267 26.3667 59.24 25.26L60.92 26.86C60.2667 27.62 59.46 28.2 58.5 28.6C57.5533 29 56.5067 29.2 55.36 29.2ZM67.5806 29.14C66.5006 29.14 65.5273 28.9067 64.6606 28.44C63.794 27.9733 63.114 27.3267 62.6206 26.5C62.1406 25.66 61.9006 24.7133 61.9006 23.66C61.9006 22.6067 62.1406 21.6667 62.6206 20.84C63.114 20.0133 63.794 19.3667 64.6606 18.9C65.5273 18.4333 66.5006 18.2 67.5806 18.2C68.674 18.2 69.654 18.4333 70.5206 18.9C71.3873 19.3667 72.0606 20.0133 72.5406 20.84C73.034 21.6667 73.2806 22.6067 73.2806 23.66C73.2806 24.7133 73.034 25.66 72.5406 26.5C72.0606 27.3267 71.3873 27.9733 70.5206 28.44C69.654 28.9067 68.674 29.14 67.5806 29.14ZM67.5806 27C68.5006 27 69.2606 26.6933 69.8606 26.08C70.4606 25.4667 70.7606 24.66 70.7606 23.66C70.7606 22.66 70.4606 21.8533 69.8606 21.24C69.2606 20.6267 68.5006 20.32 67.5806 20.32C66.6606 20.32 65.9006 20.6267 65.3006 21.24C64.714 21.8533 64.4206 22.66 64.4206 23.66C64.4206 24.66 64.714 25.4667 65.3006 26.08C65.9006 26.6933 66.6606 27 67.5806 27ZM80.0113 16.04C78.9579 16.04 78.4313 16.6133 78.4313 17.76V18.4H81.3713V20.4H78.5113V29H76.0113V20.4H74.2513V18.4H76.0113V17.72C76.0113 16.5733 76.3446 15.6733 77.0113 15.02C77.6779 14.3533 78.6179 14.02 79.8313 14.02C80.7913 14.02 81.5446 14.2133 82.0913 14.6L81.3913 16.48C80.9646 16.1867 80.5046 16.04 80.0113 16.04ZM87.3941 16.04C86.3407 16.04 85.8141 16.6133 85.8141 17.76V18.4H88.7541V20.4H85.8941V29H83.3941V20.4H81.6341V18.4H83.3941V17.72C83.3941 16.5733 83.7274 15.6733 84.3941 15.02C85.0607 14.3533 86.0007 14.02 87.2141 14.02C88.1741 14.02 88.9274 14.2133 89.4741 14.6L88.7741 16.48C88.3474 16.1867 87.8874 16.04 87.3941 16.04ZM100.321 23.72C100.321 23.8933 100.307 24.14 100.281 24.46H91.9006C92.0473 25.2467 92.4273 25.8733 93.0406 26.34C93.6673 26.7933 94.4406 27.02 95.3606 27.02C96.534 27.02 97.5006 26.6333 98.2606 25.86L99.6006 27.4C99.1206 27.9733 98.514 28.4067 97.7806 28.7C97.0473 28.9933 96.2206 29.14 95.3006 29.14C94.1273 29.14 93.094 28.9067 92.2006 28.44C91.3073 27.9733 90.614 27.3267 90.1206 26.5C89.6406 25.66 89.4006 24.7133 89.4006 23.66C89.4006 22.62 89.634 21.6867 90.1006 20.86C90.5806 20.02 91.2406 19.3667 92.0806 18.9C92.9206 18.4333 93.8673 18.2 94.9206 18.2C95.9606 18.2 96.8873 18.4333 97.7006 18.9C98.5273 19.3533 99.1673 20 99.6206 20.84C100.087 21.6667 100.321 22.6267 100.321 23.72ZM94.9206 20.2C94.1206 20.2 93.4406 20.44 92.8806 20.92C92.334 21.3867 92.0006 22.0133 91.8806 22.8H97.9406C97.834 22.0267 97.5073 21.4 96.9606 20.92C96.414 20.44 95.734 20.2 94.9206 20.2ZM112.762 23.72C112.762 23.8933 112.749 24.14 112.722 24.46H104.342C104.489 25.2467 104.869 25.8733 105.482 26.34C106.109 26.7933 106.882 27.02 107.802 27.02C108.975 27.02 109.942 26.6333 110.702 25.86L112.042 27.4C111.562 27.9733 110.955 28.4067 110.222 28.7C109.489 28.9933 108.662 29.14 107.742 29.14C106.569 29.14 105.535 28.9067 104.642 28.44C103.749 27.9733 103.055 27.3267 102.562 26.5C102.082 25.66 101.842 24.7133 101.842 23.66C101.842 22.62 102.075 21.6867 102.542 20.86C103.022 20.02 103.682 19.3667 104.522 18.9C105.362 18.4333 106.309 18.2 107.362 18.2C108.402 18.2 109.329 18.4333 110.142 18.9C110.969 19.3533 111.609 20 112.062 20.84C112.529 21.6667 112.762 22.6267 112.762 23.72ZM107.362 20.2C106.562 20.2 105.882 20.44 105.322 20.92C104.775 21.3867 104.442 22.0133 104.322 22.8H110.382C110.275 22.0267 109.949 21.4 109.402 20.92C108.855 20.44 108.175 20.2 107.362 20.2ZM116.349 17.2H111.709V15H123.589V17.2H118.949V29H116.349V17.2ZM134.246 23.72C134.246 23.8933 134.233 24.14 134.206 24.46H125.826C125.973 25.2467 126.353 25.8733 126.966 26.34C127.593 26.7933 128.366 27.02 129.286 27.02C130.46 27.02 131.426 26.6333 132.186 25.86L133.526 27.4C133.046 27.9733 132.44 28.4067 131.706 28.7C130.973 28.9933 130.146 29.14 129.226 29.14C128.053 29.14 127.02 28.9067 126.126 28.44C125.233 27.9733 124.54 27.3267 124.046 26.5C123.566 25.66 123.326 24.7133 123.326 23.66C123.326 22.62 123.56 21.6867 124.026 20.86C124.506 20.02 125.166 19.3667 126.006 18.9C126.846 18.4333 127.793 18.2 128.846 18.2C129.886 18.2 130.813 18.4333 131.626 18.9C132.453 19.3533 133.093 20 133.546 20.84C134.013 21.6667 134.246 22.6267 134.246 23.72ZM128.846 20.2C128.046 20.2 127.366 20.44 126.806 20.92C126.26 21.3867 125.926 22.0133 125.806 22.8H131.866C131.76 22.0267 131.433 21.4 130.886 20.92C130.34 20.44 129.66 20.2 128.846 20.2ZM140.435 18.2C142.008 18.2 143.208 18.58 144.035 19.34C144.875 20.0867 145.295 21.22 145.295 22.74V29H142.935V27.7C142.628 28.1667 142.188 28.5267 141.615 28.78C141.055 29.02 140.375 29.14 139.575 29.14C138.775 29.14 138.075 29.0067 137.475 28.74C136.875 28.46 136.408 28.08 136.075 27.6C135.755 27.1067 135.595 26.5533 135.595 25.94C135.595 24.98 135.948 24.2133 136.655 23.64C137.375 23.0533 138.502 22.76 140.035 22.76H142.795V22.6C142.795 21.8533 142.568 21.28 142.115 20.88C141.675 20.48 141.015 20.28 140.135 20.28C139.535 20.28 138.942 20.3733 138.355 20.56C137.782 20.7467 137.295 21.0067 136.895 21.34L135.915 19.52C136.475 19.0933 137.148 18.7667 137.935 18.54C138.722 18.3133 139.555 18.2 140.435 18.2ZM140.095 27.32C140.722 27.32 141.275 27.18 141.755 26.9C142.248 26.6067 142.595 26.1933 142.795 25.66V24.42H140.215C138.775 24.42 138.055 24.8933 138.055 25.84C138.055 26.2933 138.235 26.6533 138.595 26.92C138.955 27.1867 139.455 27.32 140.095 27.32Z" fill="black"/>
<path d="M18.9933 21.498C14.5674 30.8087 16.2607 38.6062 10.4753 36.8667C4.68996 35.1273 3.58794 26.1693 8.01389 16.8586C12.4398 7.54784 20.7177 1.41011 26.5031 3.14958C32.2885 4.88904 23.4193 12.1873 18.9933 21.498Z" fill="#5A392E"/>
</svg>
