<svg width="169" height="46" viewBox="0 0 169 46" fill="none" xmlns="http://www.w3.org/2000/svg">
<path d="M59.032 31.24C57.336 31.24 55.8 30.872 54.424 30.136C53.064 29.384 51.992 28.352 51.208 27.04C50.44 25.728 50.056 24.248 50.056 22.6C50.056 20.952 50.448 19.472 51.232 18.16C52.016 16.848 53.088 15.824 54.448 15.088C55.824 14.336 57.36 13.96 59.056 13.96C60.432 13.96 61.688 14.2 62.824 14.68C63.96 15.16 64.92 15.856 65.704 16.768L63.688 18.664C62.472 17.352 60.976 16.696 59.2 16.696C58.048 16.696 57.016 16.952 56.104 17.464C55.192 17.96 54.48 18.656 53.968 19.552C53.456 20.448 53.2 21.464 53.2 22.6C53.2 23.736 53.456 24.752 53.968 25.648C54.48 26.544 55.192 27.248 56.104 27.76C57.016 28.256 58.048 28.504 59.2 28.504C60.976 28.504 62.472 27.84 63.688 26.512L65.704 28.432C64.92 29.344 63.952 30.04 62.8 30.52C61.664 31 60.408 31.24 59.032 31.24ZM73.6968 31.168C72.4008 31.168 71.2328 30.888 70.1928 30.328C69.1528 29.768 68.3368 28.992 67.7448 28C67.1688 26.992 66.8808 25.856 66.8808 24.592C66.8808 23.328 67.1688 22.2 67.7448 21.208C68.3368 20.216 69.1528 19.44 70.1928 18.88C71.2328 18.32 72.4008 18.04 73.6968 18.04C75.0088 18.04 76.1848 18.32 77.2248 18.88C78.2648 19.44 79.0728 20.216 79.6488 21.208C80.2408 22.2 80.5368 23.328 80.5368 24.592C80.5368 25.856 80.2408 26.992 79.6488 28C79.0728 28.992 78.2648 29.768 77.2248 30.328C76.1848 30.888 75.0088 31.168 73.6968 31.168ZM73.6968 28.6C74.8008 28.6 75.7128 28.232 76.4328 27.496C77.1528 26.76 77.5128 25.792 77.5128 24.592C77.5128 23.392 77.1528 22.424 76.4328 21.688C75.7128 20.952 74.8008 20.584 73.6968 20.584C72.5928 20.584 71.6808 20.952 70.9608 21.688C70.2568 22.424 69.9048 23.392 69.9048 24.592C69.9048 25.792 70.2568 26.76 70.9608 27.496C71.6808 28.232 72.5928 28.6 73.6968 28.6ZM88.6135 15.448C87.3495 15.448 86.7175 16.136 86.7175 17.512V18.28H90.2455V20.68H86.8135V31H83.8135V20.68H81.7015V18.28H83.8135V17.464C83.8135 16.088 84.2135 15.008 85.0135 14.224C85.8135 13.424 86.9415 13.024 88.3975 13.024C89.5495 13.024 90.4535 13.256 91.1095 13.72L90.2695 15.976C89.7575 15.624 89.2055 15.448 88.6135 15.448ZM97.4729 15.448C96.2089 15.448 95.5769 16.136 95.5769 17.512V18.28H99.1049V20.68H95.6729V31H92.6729V20.68H90.5609V18.28H92.6729V17.464C92.6729 16.088 93.0729 15.008 93.8729 14.224C94.6729 13.424 95.8009 13.024 97.2569 13.024C98.4089 13.024 99.3129 13.256 99.9689 13.72L99.1289 15.976C98.6169 15.624 98.0649 15.448 97.4729 15.448ZM112.985 24.664C112.985 24.872 112.969 25.168 112.937 25.552H102.881C103.057 26.496 103.513 27.248 104.249 27.808C105.001 28.352 105.929 28.624 107.033 28.624C108.441 28.624 109.601 28.16 110.513 27.232L112.121 29.08C111.545 29.768 110.817 30.288 109.937 30.64C109.057 30.992 108.065 31.168 106.961 31.168C105.553 31.168 104.313 30.888 103.241 30.328C102.169 29.768 101.337 28.992 100.745 28C100.169 26.992 99.8808 25.856 99.8808 24.592C99.8808 23.344 100.161 22.224 100.721 21.232C101.297 20.224 102.089 19.44 103.097 18.88C104.105 18.32 105.241 18.04 106.505 18.04C107.753 18.04 108.865 18.32 109.841 18.88C110.833 19.424 111.601 20.2 112.145 21.208C112.705 22.2 112.985 23.352 112.985 24.664ZM106.505 20.44C105.545 20.44 104.729 20.728 104.057 21.304C103.401 21.864 103.001 22.616 102.857 23.56H110.129C110.001 22.632 109.609 21.88 108.953 21.304C108.297 20.728 107.481 20.44 106.505 20.44ZM127.914 24.664C127.914 24.872 127.898 25.168 127.866 25.552H117.81C117.986 26.496 118.442 27.248 119.178 27.808C119.93 28.352 120.858 28.624 121.962 28.624C123.37 28.624 124.53 28.16 125.442 27.232L127.05 29.08C126.474 29.768 125.746 30.288 124.866 30.64C123.986 30.992 122.994 31.168 121.89 31.168C120.482 31.168 119.242 30.888 118.17 30.328C117.098 29.768 116.266 28.992 115.674 28C115.098 26.992 114.81 25.856 114.81 24.592C114.81 23.344 115.09 22.224 115.65 21.232C116.226 20.224 117.018 19.44 118.026 18.88C119.034 18.32 120.17 18.04 121.434 18.04C122.682 18.04 123.794 18.32 124.77 18.88C125.762 19.424 126.53 20.2 127.074 21.208C127.634 22.2 127.914 23.352 127.914 24.664ZM121.434 20.44C120.474 20.44 119.658 20.728 118.986 21.304C118.33 21.864 117.93 22.616 117.786 23.56H125.058C124.93 22.632 124.538 21.88 123.882 21.304C123.226 20.728 122.41 20.44 121.434 20.44ZM132.219 16.84H126.651V14.2H140.907V16.84H135.339V31H132.219V16.84ZM153.696 24.664C153.696 24.872 153.68 25.168 153.648 25.552H143.592C143.768 26.496 144.224 27.248 144.96 27.808C145.712 28.352 146.64 28.624 147.744 28.624C149.152 28.624 150.312 28.16 151.224 27.232L152.832 29.08C152.256 29.768 151.528 30.288 150.648 30.64C149.768 30.992 148.776 31.168 147.672 31.168C146.264 31.168 145.024 30.888 143.952 30.328C142.88 29.768 142.048 28.992 141.456 28C140.88 26.992 140.592 25.856 140.592 24.592C140.592 23.344 140.872 22.224 141.432 21.232C142.008 20.224 142.8 19.44 143.808 18.88C144.816 18.32 145.952 18.04 147.216 18.04C148.464 18.04 149.576 18.32 150.552 18.88C151.544 19.424 152.312 20.2 152.856 21.208C153.416 22.2 153.696 23.352 153.696 24.664ZM147.216 20.44C146.256 20.44 145.44 20.728 144.768 21.304C144.112 21.864 143.712 22.616 143.568 23.56H150.84C150.712 22.632 150.32 21.88 149.664 21.304C149.008 20.728 148.192 20.44 147.216 20.44ZM161.122 18.04C163.01 18.04 164.45 18.496 165.442 19.408C166.45 20.304 166.954 21.664 166.954 23.488V31H164.122V29.44C163.754 30 163.226 30.432 162.538 30.736C161.866 31.024 161.05 31.168 160.09 31.168C159.13 31.168 158.29 31.008 157.57 30.688C156.85 30.352 156.29 29.896 155.89 29.32C155.506 28.728 155.314 28.064 155.314 27.328C155.314 26.176 155.738 25.256 156.586 24.568C157.45 23.864 158.802 23.512 160.642 23.512H163.954V23.32C163.954 22.424 163.682 21.736 163.138 21.256C162.61 20.776 161.818 20.536 160.762 20.536C160.042 20.536 159.33 20.648 158.626 20.872C157.938 21.096 157.354 21.408 156.874 21.808L155.698 19.624C156.37 19.112 157.178 18.72 158.122 18.448C159.066 18.176 160.066 18.04 161.122 18.04ZM160.714 28.984C161.466 28.984 162.13 28.816 162.706 28.48C163.298 28.128 163.714 27.632 163.954 26.992V25.504H160.858C159.13 25.504 158.266 26.072 158.266 27.208C158.266 27.752 158.482 28.184 158.914 28.504C159.346 28.824 159.946 28.984 160.714 28.984Z" fill="white"/>
<path d="M25.2601 22.1699C31.1105 11.4475 31.3801 7.11488 32.034 4.38458C38.8689 8.92765 39.63 17.8948 34.5611 29.3356C27.6246 43.8701 20.1822 42.6905 18.5869 41.0101C15.2033 37.4461 19.3178 34.5322 25.2601 22.1699Z" fill="white"/>
<path d="M19.9487 22.5637C15.3001 32.336 17.0786 40.52 11.0022 38.6943C4.9259 36.8686 3.76845 27.4666 8.41701 17.6943C13.0656 7.922 21.7598 1.48002 27.8362 3.30571C33.9125 5.1314 24.5973 12.7914 19.9487 22.5637Z" fill="white"/>
</svg>
